<?xml version="1.0" encoding="utf-8"?>
<!-- Generator: Adobe Illustrator 21.0.2, SVG Export Plug-In . SVG Version: 6.00 Build 0)  -->
<svg version="1.1" id="Layer_1" xmlns="http://www.w3.org/2000/svg" xmlns:xlink="http://www.w3.org/1999/xlink" x="0px" y="0px"
	 viewBox="0 0 32 32" style="enable-background:new 0 0 32 32;" xml:space="preserve">
<g>
	<polygon points="29.7,11.8 27.2,9.3 16.2,20.3 5.3,9.3 2.8,11.8 13.7,22.8 13.7,22.8 16.2,25.3 16.2,25.3 16.2,25.3 18.7,22.8 
		18.7,22.8 	"/>
	<path d="M16.2,26.1l-3.3-3.3l0,0L2,11.8l3.3-3.3l10.9,10.9L27.2,8.5l3.3,3.3L16.2,26.1z M16.2,24.5L16.2,24.5l12.7-12.7l-1.7-1.7
		L16.2,21L5.3,10.1l-1.7,1.7l10.9,10.9l0,0L16.2,24.5z"/>
</g>
</svg>
