<?xml version="1.0" encoding="utf-8"?>
<!-- Generator: Adobe Illustrator 21.0.2, SVG Export Plug-In . SVG Version: 6.00 Build 0)  -->
<svg version="1.1" id="Layer_1" xmlns="http://www.w3.org/2000/svg" xmlns:xlink="http://www.w3.org/1999/xlink" x="0px" y="0px"
	 viewBox="0 0 43.2 32" style="enable-background:new 0 0 43.2 32;" xml:space="preserve">
<style type="text/css">
	.st0{fill:#4D4D4D;}
</style>
<path class="st0" d="M40.2,2.1h-36c-1.1,0-2,0.9-2,2v25c0,1.1,0.9,2,2,2h36c1.1,0,2-0.9,2-2v-25C42.2,3,41.3,2.1,40.2,2.1z
	 M20.5,21.4c-2,2.8-6,3.6-9.1,2.4c-3.1-1.2-5.3-4.5-5.1-7.9c0.1-4.1,3.9-7.7,8-7.6c2-0.1,3.8,0.8,5.3,2c-0.6,0.7-1.3,1.4-2,2.1
	c-1.8-1.3-4.4-1.6-6.2-0.2c-2.6,1.8-2.7,6-0.2,8c2.4,2.2,7,1.1,7.7-2.3c-1.5,0-3,0-4.6,0c0-0.9,0-1.8,0-2.7c2.5,0,5.1,0,7.6,0
	C22.1,17.4,21.8,19.7,20.5,21.4z M31.5,17.5c-0.8,0-1.5,0-2.3,0c0,0.8,0,1.5,0,2.3c-0.8,0-1.5,0-2.3,0c0-0.8,0-1.5,0-2.3
	c-0.8,0-1.5,0-2.3,0c0-0.8,0-1.5,0-2.3c0.8,0,1.5,0,2.3,0c0-0.8,0-1.5,0-2.3c0.8,0,1.5,0,2.3,0c0,0.8,0,1.5,0,2.3c0.8,0,1.5,0,2.3,0
	C31.5,16,31.5,16.8,31.5,17.5z M37.8,23h-2.4V12.8h-2.6l1.4-2.2h3.6V23z"/>
</svg>
