<?xml version="1.0" encoding="utf-8"?>
<!-- Generator: Adobe Illustrator 21.0.2, SVG Export Plug-In . SVG Version: 6.00 Build 0)  -->
<!DOCTYPE svg PUBLIC "-//W3C//DTD SVG 1.1//EN" "http://www.w3.org/Graphics/SVG/1.1/DTD/svg11.dtd">
<svg version="1.1" id="Layer_1" xmlns="http://www.w3.org/2000/svg" xmlns:xlink="http://www.w3.org/1999/xlink" x="0px" y="0px"
	 viewBox="0 0 26 28" style="enable-background:new 0 0 26 28;" xml:space="preserve">
<path d="M0,10.1c0-0.4,0.3-0.6,0.9-0.7L9,9.5l3.2-8.4c0.2-0.4,0.5-0.6,0.8-0.6c0.3,0,0.6,0.2,0.8,0.6L17,9.4l8.1,0
	c0.6,0.1,0.9,0.3,0.9,0.7c0,0.2-0.1,0.5-0.4,0.8l-7,5.6l2.7,7.8c0,0.1,0,0.2,0,0.3c0,0.2-0.1,0.4-0.2,0.6s-0.3,0.2-0.5,0.2
	c-0.2,0-0.4-0.1-0.6-0.2l-7-3.7l-7,3.7c-0.2,0.1-0.4,0.2-0.6,0.2c-0.2,0-0.4-0.1-0.5-0.2c-0.1-0.2-0.2-0.3-0.2-0.6
	c0-0.1,0-0.2,0-0.3l2.8-7.8l-7.2-5.6C0.1,10.6,0,10.3,0,10.1L0,10.1z"/>
</svg>
