<?xml version="1.0" encoding="utf-8"?>
<!-- Generator: Adobe Illustrator 21.0.2, SVG Export Plug-In . SVG Version: 6.00 Build 0)  -->
<svg version="1.1" id="Layer_1" xmlns="http://www.w3.org/2000/svg" xmlns:xlink="http://www.w3.org/1999/xlink" x="0px" y="0px"
	 viewBox="0 0 32 32" style="enable-background:new 0 0 32 32;" xml:space="preserve">
<g>
	<polygon points="2.8,22.8 5.3,25.3 16.2,14.3 27.2,25.3 29.7,22.8 18.7,11.8 18.7,11.8 16.2,9.3 16.2,9.3 16.2,9.3 13.7,11.8 
		13.7,11.8 	"/>
	<path d="M16.2,8.5l3.3,3.3l0,0l10.9,10.9l-3.3,3.3L16.2,15.1L5.3,26.1L2,22.8L16.2,8.5z M16.2,10.1L16.2,10.1L3.6,22.8l1.7,1.7
		l10.9-10.9l10.9,10.9l1.7-1.7L17.9,11.8l0,0L16.2,10.1z"/>
</g>
</svg>
